<?xml version="1.0" encoding="UTF-8"?>
<svg width="48px" height="42px" viewBox="0 0 48 42" version="1.1" xmlns="http://www.w3.org/2000/svg" xmlns:xlink="http://www.w3.org/1999/xlink">
    <!-- Generator: sketchtool 53.2 (72643) - https://sketchapp.com -->
    <title>2D78EE0E-4461-418D-86A0-6A69AC2FEC9C</title>
    <desc>Created with sketchtool.</desc>
    <g id="Icons" stroke="none" stroke-width="1" fill="none" fill-rule="evenodd">
        <g transform="translate(-188.000000, -54.000000)" fill="#FFFFFF" fill-rule="nonzero" id="icon-share">
            <path d="M235.075552,70.1068141 C236.308136,71.3758952 236.308136,73.3741252 235.075634,74.6432064 L220.409145,89.7369565 C218.34917,91.8569517 214.666638,90.441512 214.666638,87.4687604 L214.666638,80.2631481 C201.797918,80.4117497 196.411368,81.635249 199.567452,92.6573171 C200.262601,95.078681 197.44693,96.942008 195.427482,95.4881964 C192.653315,93.4915685 188,88.9592618 188,81.1679753 C188,67.1334216 200.878974,64.6768099 214.666638,64.513949 L214.666638,57.2825418 C214.666638,54.3073068 218.351286,52.8966737 220.409145,55.0144258 L235.075552,70.1068141 Z M233.148308,72.8286655 C233.250766,72.7237231 233.333936,72.5205676 233.333936,72.3750102 C233.333936,72.2294528 233.250766,72.0262973 233.148308,71.921355 L218.481657,56.8276048 C218.07085,56.4043107 217.333302,56.6855722 217.333302,57.28126 L217.333302,67.1250102 C204.240461,67.1250102 190.666664,68.0420939 190.666664,81.1679753 C190.666664,87.2710523 193.999994,91.1897268 197.001618,93.3504171 C192.723872,78.4212902 203.050277,77.6250103 217.333302,77.6250103 L217.333302,87.4687604 C217.333302,88.064288 218.070525,88.3457097 218.481657,87.9224156 L233.148308,72.8286655 Z"></path>
        </g>
    </g>
</svg>