<?xml version="1.0" encoding="UTF-8"?>
<svg width="48px" height="48px" viewBox="0 0 48 48" version="1.1" xmlns="http://www.w3.org/2000/svg" xmlns:xlink="http://www.w3.org/1999/xlink">
    <!-- Generator: sketchtool 53.2 (72643) - https://sketchapp.com -->
    <title>8374B5D9-2FC0-407C-8C6A-39641A2DE753</title>
    <desc>Created with sketchtool.</desc>
    <g id="Icons" stroke="none" stroke-width="1" fill="none" fill-rule="evenodd">
        <g transform="translate(-188.000000, -460.000000)" fill="#FFFFFF" fill-rule="nonzero" id="icon-print">
            <path d="M228.5,478 C232.641846,478 236,481.358154 236,485.5 L236,494.5 C236,495.328735 235.328735,496 234.5,496 L227,496 L227,506.5 C227,507.328735 226.328735,508 225.5,508 L198.5,508 C197.671265,508 197,507.328735 197,506.5 L197,496 L189.5,496 C188.671265,496 188,495.328735 188,494.5 L188,485.5 C188,481.358154 191.358154,478 195.5,478 L197,478 L197,463 C197,461.343445 198.278717,460 199.857544,460 L216.756897,460 C217.552856,460 218.315948,460.315948 218.878448,460.878448 L226.121552,468.120636 C226.684052,468.684052 227,469.446228 227,470.242188 L227,478 L228.5,478 Z M218,464.242188 L218,469 L222.757812,469 L218,464.242188 Z M200.011261,463 L200.001831,478 L224,478 L224,472 L218,472 C216.343445,472 215,470.656555 215,469 L215,463 L200.011261,463 Z M224,505 L224,496 L200,496 L200,505 L224,505 Z M233,493 L233,485.5 C233,483.018463 230.981537,481 228.5,481 L195.5,481 C193.018463,481 191,483.018463 191,485.5 L191,493 L233,493 Z M225.5,484.75 C226.742188,484.75 227.75,485.756897 227.75,487 C227.75,488.242188 226.742188,489.25 225.5,489.25 C224.257812,489.25 223.25,488.242188 223.25,487 C223.25,485.756897 224.257812,484.75 225.5,484.75 Z"></path>
        </g>
    </g>
</svg>