<?xml version="1.0" encoding="UTF-8"?>
<svg width="53px" height="53px" viewBox="0 0 53 53" version="1.1" xmlns="http://www.w3.org/2000/svg" xmlns:xlink="http://www.w3.org/1999/xlink">
    <!-- Generator: sketchtool 53.2 (72643) - https://sketchapp.com -->
    <title>D9924E13-AC40-45E1-9297-7BEBAFBCC1A1</title>
    <desc>Created with sketchtool.</desc>
    <g id="Icons" stroke="none" stroke-width="1" fill="none" fill-rule="evenodd">
        <g transform="translate(-50.000000, -457.000000)" fill="#FFFFFF" fill-rule="nonzero" id="icon-3d">
            <path d="M76.5,457 C83.4281392,457 89.4382098,459.329078 94.5303922,463.987305 C99.6225745,468.645531 102.445749,474.390591 103,481.222656 L99.6745098,481.222656 C99.3281028,477.151021 97.9598159,473.459001 95.5696078,470.146484 C93.1793998,466.833968 90.1483844,464.315113 86.4764706,462.589844 L83.4627451,465.488281 L75.045098,457.103516 L76.5,457 Z M86.5803922,483.085938 C86.5803922,479.152324 84.9523039,477.185547 81.6960784,477.185547 L79.6176471,477.185547 L79.6176471,489.917969 L81.5921569,489.917969 C84.086287,489.917969 85.6797351,488.744803 86.372549,486.398438 C86.5111118,485.915362 86.5803922,485.087245 86.5803922,483.914062 L86.5803922,483.085938 Z M81.6960784,474.701172 C85.3679922,474.701172 87.8620849,476.3229 89.1784314,479.566406 C89.5248383,480.394535 89.6980392,481.567701 89.6980392,483.085938 L89.6980392,483.914062 C89.6980392,486.536471 88.9705955,488.572258 87.5156863,490.021484 C85.9914956,491.539721 84.0170056,492.298828 81.5921569,492.298828 L76.5,492.298828 L76.5,474.701172 L81.6960784,474.701172 Z M71.4078431,483.292969 C73.3477221,484.052087 74.3176471,485.397777 74.3176471,487.330078 C74.3176471,488.020186 74.1444462,488.710283 73.7980392,489.400391 C73.3823509,490.22852 73.0013089,490.780598 72.654902,491.056641 C71.6156811,491.88477 70.230074,492.298828 68.4980392,492.298828 C66.8352858,492.298828 65.4843189,491.88477 64.445098,491.056641 C63.4058772,490.228511 62.8862745,489.020841 62.8862745,487.433594 L65.6921569,487.433594 C65.6921569,488.192712 65.9519582,488.8138 66.4715686,489.296875 C66.9911791,489.77995 67.6666625,490.021484 68.4980392,490.021484 C70.4379182,490.021484 71.4078431,489.089853 71.4078431,487.226562 C71.4078431,485.363272 70.3339977,484.431641 68.1862745,484.431641 L66.5235294,484.431641 L66.5235294,482.154297 L68.1862745,482.154297 C70.1954349,482.154297 71.2,481.291675 71.2,479.566406 C71.2,477.841137 70.2993554,476.978516 68.4980392,476.978516 C66.7660044,476.978516 65.9,477.772127 65.9,479.359375 L62.9901961,479.359375 C62.9901961,478.186192 63.5097987,477.082036 64.5490196,476.046875 C65.6575219,475.149735 66.9738486,474.701172 68.4980392,474.701172 C70.9228879,474.701172 72.6202566,475.632803 73.5901961,477.496094 C73.8673216,478.04818 74.0058824,478.738277 74.0058824,479.566406 C74.0058824,481.153654 73.1398779,482.395829 71.4078431,483.292969 Z M66.5235294,504.410156 L69.5372549,501.511719 L77.954902,509.896484 L76.5,510 C69.5718608,510 63.5617902,507.653669 58.4696078,502.960938 C53.3774255,498.268206 50.5542511,492.505894 50,485.673828 L53.3254902,485.673828 C53.7411785,489.814474 55.1267856,493.540999 57.4823529,496.853516 C59.8379203,500.166032 62.8516156,502.684887 66.5235294,504.410156 Z"></path>
        </g>
    </g>
</svg>