<?xml version="1.0" encoding="UTF-8"?>
<svg width="49px" height="49px" viewBox="0 0 49 49" version="1.1" xmlns="http://www.w3.org/2000/svg" xmlns:xlink="http://www.w3.org/1999/xlink">
    <!-- Generator: sketchtool 53.2 (72643) - https://sketchapp.com -->
    <title>F509114B-E68B-4D42-8480-FBC4C63A0EB1</title>
    <desc>Created with sketchtool.</desc>
    <g id="Icons" stroke="none" stroke-width="1" fill="none" fill-rule="evenodd">
        <g transform="translate(-324.000000, -460.000000)" fill="#FFFFFF" fill-rule="nonzero" id="icon-floorplan">
            <path d="M370,495.600781 L359.193359,495.600781 L359.193359,492.600781 L370,492.600781 L370,463.5 C370,463.223858 369.776142,463 369.5,463 L349.5,463 L349.5,472.215445 L356.792969,472.215445 L356.792969,475.215445 L349.5,475.215445 L349.5,475.271484 L346.5,475.271484 L346.5,475.215445 L339.878906,475.215445 L339.878906,472.215445 L346.5,472.215445 L346.5,463 L327.5,463 C327.223858,463 327,463.223858 327,463.5 L327,485.5 L347,485.5 L347,485.4 L350,485.4 L350,495.600781 L347,495.600781 L347,488.5 L327,488.5 L327,505.5 C327,505.776142 327.223858,506 327.5,506 L348.5,506 L348.5,509 L327.5,509 C325.567003,509 324,507.432997 324,505.5 L324,463.5 C324,461.567003 325.567003,460 327.5,460 L369.5,460 C371.432997,460 373,461.567003 373,463.5 L373,505.5 C373,507.432997 371.432997,509 369.5,509 L360.5,509 L360.5,506 L369.5,506 C369.776142,506 370,505.776142 370,505.5 L370,495.600781 Z"></path>
        </g>
    </g>
</svg>